<?xml version="1.0" encoding="UTF-8"?>
<!DOCTYPE svg PUBLIC "-//W3C//DTD SVG 1.1//EN" "http://www.w3.org/Graphics/SVG/1.1/DTD/svg11.dtd">
<!-- Creator: CorelDRAW X8 -->
<svg xmlns="http://www.w3.org/2000/svg" xml:space="preserve" width="20.4px" height="15.4px" version="1.1" style="shape-rendering:geometricPrecision; text-rendering:geometricPrecision; image-rendering:optimizeQuality; fill-rule:evenodd; clip-rule:evenodd"
viewBox="0 0 10200 7700"
 xmlns:xlink="http://www.w3.org/1999/xlink">
 <defs>
  <style type="text/css">
   <![CDATA[
    .fil2 {fill:none}
    .fil0 {fill:#05545E}
    .fil1 {fill:black;fill-rule:nonzero}
   ]]>
  </style>
 </defs>
 <g id="Capa_x0020_1">
  <metadata id="CorelCorpID_0Corel-Layer"/>
  <g id="_2909236290656">
   <path class="fil0" d="M5241 2136c-1044,1137 -1076,2338 -230,3594l4963 -1549 -4733 -2045z"/>
   <g>
    <path class="fil1" d="M9769 4328c10,4 19,9 29,13 10,5 39,21 47,24 -17,-12 -26,-20 -40,-36 -20,-22 -31,-42 -42,-70 -11,-30 -15,-55 -14,-88 2,-44 13,-77 36,-115 22,-31 42,-52 74,-71 19,-11 36,-18 57,-24 6,-3 51,-10 58,-8 -2669,697 -7335,2263 -9949,3256 9,38 4353,-1315 4577,-1384 -1259,416 -2519,832 -3773,1260 1217,-362 2432,-742 3646,-1117 -1151,399 -3286,1051 -4326,1555 1031,-391 2236,-749 3289,-1095 -326,116 -3123,1092 -3266,1238 -16,-29 8833,-2962 9816,-3283 22,-7 0,-3 -14,-3 19,0 34,-2 53,-7 19,-5 34,-11 51,-21 28,-17 46,-35 65,-63 21,-33 30,-62 32,-101 1,-29 -2,-51 -12,-78 -10,-25 -21,-43 -38,-64 -20,-21 -34,-32 -59,-47 -26,-15 -52,-28 -80,-41 -94,-45 -189,-87 -284,-129 -349,-154 -704,-305 -1056,-451 -1094,-454 -2188,-910 -3283,-1363 -305,-126 -4826,-2001 -4834,-1981 -18,28 4199,1843 4431,1943 -1242,-508 -2484,-1017 -3730,-1512 1174,519 2356,1026 3534,1535 -1139,-448 -3222,-1356 -4344,-1648 1047,373 2220,897 3255,1321 -329,-125 -3124,-1215 -3331,-1196 0,-23 4489,1826 4838,1969 1,4 2955,1205 3289,1341 351,144 703,289 1054,436 82,34 163,69 244,105z"/>
   </g>
   <path class="fil2" d="M484 142c0,0 9684,4039 9490,4039 -194,0 -9914,3140 -9914,3140"/>
   <g>
    <path class="fil1" d="M8012 5034c664,-219 1329,-443 1994,-657 44,-14 73,-35 102,-70 27,-37 40,-70 43,-116 2,-46 -7,-81 -31,-120 -25,-39 -52,-62 -93,-81 -1578,-653 -3155,-1306 -4733,-1959 -27,-11 -49,-13 -77,-7 -16,3 -27,8 -41,16 13,-8 26,-13 41,-16 28,-6 50,-3 77,8 1030,478 2061,954 3094,1427 -676,-275 -1351,-551 -2026,-826 638,297 1277,592 1917,885 -984,-369 -1968,-737 -2952,-1106 804,337 1608,671 2413,1005 -879,-315 -1758,-630 -2636,-946 73,30 135,37 213,22 78,-18 132,-49 187,-107 -53,59 -110,87 -187,107 -78,15 -139,9 -213,-21 1583,640 3166,1281 4748,1922 -47,-22 -77,-48 -105,-91 -27,-45 -37,-84 -35,-136 4,-51 18,-89 49,-130 33,-40 66,-63 114,-80 0,0 -1157,391 -1730,584 -1058,344 -2116,694 -3176,1031 35,-9 62,-9 96,2 34,13 56,30 76,59 -373,-564 -593,-1050 -584,-1737 18,-316 78,-548 204,-838 154,-329 323,-566 562,-838 -252,262 -425,498 -596,822 -141,291 -210,527 -241,850 -30,502 65,871 270,1327 -227,-453 -338,-820 -333,-1330 12,-265 53,-468 139,-719 -100,243 -147,454 -173,717 -32,487 55,851 243,1299 -224,-444 -335,-804 -343,-1305 7,-356 65,-620 197,-952 123,-294 256,-516 447,-772 -200,246 -340,471 -477,759 -145,332 -212,599 -232,962 -9,303 23,538 104,831 -95,-292 -139,-526 -146,-833 4,-373 62,-650 195,-997 156,-384 333,-661 591,-983 -274,306 -461,586 -640,960 -153,350 -224,632 -246,1014 -10,800 235,1365 673,2022 42,60 88,95 156,121 70,23 127,24 197,3 969,-322 1940,-644 2904,-982z"/>
   </g>
   <path class="fil2" d="M5241 2136c-1044,1137 -1076,2338 -230,3594l4963 -1549 -4733 -2045z"/>
  </g>
 </g>
</svg>
